<svg width="604" height="544" viewBox="0 0 604 544" fill="none" xmlns="http://www.w3.org/2000/svg">
<path d="M299.014 2C281.858 3.49275 265.176 10.4943 249.656 17.6847C215.11 33.6905 182.483 54.4742 151.028 76.0316C136.418 86.0451 120.955 96.3715 108.07 108.745C107.093 109.684 105.327 112.599 106.668 112.599C114.692 112.599 123.982 110.054 131.741 109.104C180.85 103.09 231.227 100.397 280.604 104.174C313.747 106.71 360.386 111.156 383.966 139.129C410.424 170.515 371.597 205.363 348.635 223.199C312.188 251.51 270.426 273.58 228.703 292.39C189.25 310.178 147.484 326.119 104.564 332.543C69.3608 337.812 21.1462 336.214 6.28605 295.976C-4.02419 268.058 4.84119 230.798 26.713 210.83C57.7139 182.528 71.0541 226.466 74.2299 251.61C83.5665 325.533 68.6491 398.927 63.8849 472.45C62.9428 486.989 61.2436 506.28 65.9013 520.849C74.7695 548.589 105.421 543.018 127.358 537.43C158.689 529.448 207.839 508.168 235.542 495.305C298.635 466.011 359.76 432.188 420.437 398.06C470.628 369.83 520.201 340.465 570.614 312.646C580.229 307.34 591.026 299.474 602 297.23" stroke="url(#paint0_linear_1_35)" stroke-width="3" stroke-linecap="round"/>
<path d="M317.311 323.094C306.669 324.182 305.667 355.514 313.261 355.514C321.116 355.514 334.566 328.784 327.612 323.094C326.807 322.435 332.396 339.716 333.952 343.266C340.713 358.692 346.05 345.083 349.8 334.711C356.757 315.473 361.546 291.313 358.429 270.591C355.924 253.937 357.155 304.534 360.102 321.112C361.229 327.452 367.992 302.927 369.611 299.859C375.909 287.924 377.087 298.393 381.938 305.263C385.71 310.604 387.834 314.227 390.214 306.163C392.161 299.568 390.584 279.722 393.736 285.811C394.464 287.217 398.489 300.242 401.308 297.698C405.467 293.945 403.866 276.415 404.478 271.222C405.521 262.371 408.599 252.073 407.295 243.125C406.497 237.642 406.025 241.532 406.063 244.746C406.247 260.211 408.285 275.592 412.402 290.494C414.825 299.262 418.629 313.546 428.251 317.15C436.792 320.349 441.539 310.774 445.684 305.263" stroke="url(#paint1_linear_1_35)" stroke-width="3" stroke-linecap="round"/>
<path d="M383.011 260.257C383.011 264.971 381.379 253.863 384.105 260.257" stroke="url(#paint2_linear_1_35)" stroke-width="3" stroke-linecap="round"/>
<path d="M507.263 282.541C507.263 273.47 511.1 296.909 505.684 285.784" stroke="white" stroke-width="3" stroke-linecap="round"/>
<path d="M532.526 269.568C536.916 270.131 532.526 286.017 532.526 277.676" stroke="white" stroke-width="3" stroke-linecap="round"/>
<defs>
<linearGradient id="paint0_linear_1_35" x1="302" y1="2" x2="302" y2="542" gradientUnits="userSpaceOnUse">
<stop stop-color="#8D65FF"/>
<stop offset="0.614583" stop-color="white" stop-opacity="0.724745"/>
<stop offset="0.9999" stop-color="white" stop-opacity="0.0729167"/>
<stop offset="1" stop-color="white" stop-opacity="0"/>
</linearGradient>
<linearGradient id="paint1_linear_1_35" x1="377" y1="240.378" x2="377" y2="355.514" gradientUnits="userSpaceOnUse">
<stop stop-color="white"/>
<stop offset="0.614583" stop-color="white" stop-opacity="0.724745"/>
<stop offset="0.9999" stop-color="white" stop-opacity="0.0729167"/>
<stop offset="1" stop-color="white" stop-opacity="0"/>
</linearGradient>
<linearGradient id="paint2_linear_1_35" x1="383.316" y1="258.216" x2="383.316" y2="261.459" gradientUnits="userSpaceOnUse">
<stop stop-color="#8D65FF"/>
<stop offset="0.614583" stop-color="white" stop-opacity="0.724745"/>
<stop offset="0.9999" stop-color="white" stop-opacity="0.0729167"/>
<stop offset="1" stop-color="white" stop-opacity="0"/>
</linearGradient>
</defs>
</svg>
