<?xml version="1.0" encoding="UTF-8" standalone="no"?>
<!DOCTYPE svg PUBLIC "-//W3C//DTD SVG 1.1//EN" "http://www.w3.org/Graphics/SVG/1.1/DTD/svg11.dtd">
<!-- Created with Vectornator (http://vectornator.io/) -->
<svg height="150%" stroke-miterlimit="10" style="fill-rule:nonzero;clip-rule:evenodd;stroke-linecap:round;stroke-linejoin:round;" version="1.1" viewBox="0 0 184 48" width="150%" xmlSpace="preserve" xmlns="http://www.w3.org/2000/svg" xmlnsVectornator="http://vectornator.io" xmlnsXlink="http://www.w3.org/1999/xlink">
<defs>
<linearGradient gradientTransform="matrix(1 0 0 1 0 0)" gradientUnits="userSpaceOnUse" id="LinearGradient" x1="-11.9159" x2="29.9947" y1="-7" y2="96.9589">
<stop offset="0.0103325" stop-color="#8ca8ff"/>
<stop offset="1" stop-color="#d9e2ff" stop-opacity="0"/>
</linearGradient>
</defs>
<g id="logo" vectornatorLayerName="logo">
<path d="M0.64 20.2C1.94667 20.1467 2.90667 19.8667 3.52 19.36C4.13333 18.8267 4.44 18.08 4.44 17.12C4.44 16.4 4.30667 14.9733 4.04 12.84C4.01333 12.6267 3.93333 11.9467 3.8 10.8C3.66667 9.62666 3.6 8.57333 3.6 7.64C3.6 5.37333 4.29333 3.61333 5.68 2.36C7.06667 1.08 8.92 0.439999 11.24 0.439999L14.12 0.439999L14.12 6.04L12.56 6.04C11.7067 6.04 11.0933 6.22666 10.72 6.6C10.3467 6.97333 10.16 7.54667 10.16 8.32C10.16 8.90667 10.2667 10.24 10.48 12.32C10.72 14.9067 10.84 16.6 10.84 17.4C10.84 18.8667 10.48 20.08 9.76 21.04C9.06667 22 8 22.6133 6.56 22.88L6.56 22.96C8 23.2533 9.06667 23.88 9.76 24.84C10.48 25.7733 10.84 26.9867 10.84 28.48C10.84 29.28 10.72 30.9733 10.48 33.56C10.2667 35.5867 10.16 36.9067 10.16 37.52C10.16 38.2933 10.3467 38.8667 10.72 39.24C11.0933 39.64 11.7067 39.84 12.56 39.84L14.12 39.84L14.12 45.44L11.24 45.44C8.92 45.44 7.06667 44.8 5.68 43.52C4.29333 42.2667 3.6 40.4933 3.6 38.2C3.6 37.2667 3.66667 36.2267 3.8 35.08C3.93333 33.9067 4.01333 33.2133 4.04 33C4.30667 30.8667 4.44 29.44 4.44 28.72C4.44 27.8133 4.13333 27.0933 3.52 26.56C2.90667 26 1.94667 25.6933 0.64 25.64L0.64 20.2ZM22.8409 12.36C21.6409 12.36 20.6543 12.0133 19.8809 11.32C19.1343 10.6 18.7609 9.72 18.7609 8.68C18.7609 7.61333 19.1343 6.73333 19.8809 6.04C20.6543 5.32 21.6409 4.96 22.8409 4.96C24.0143 4.96 24.9743 5.32 25.7209 6.04C26.4943 6.73333 26.8809 7.61333 26.8809 8.68C26.8809 9.72 26.4943 10.6 25.7209 11.32C24.9743 12.0133 24.0143 12.36 22.8409 12.36ZM26.2809 39.88C26.2809 42.6267 25.5876 44.6 24.2009 45.8C22.8143 47.0267 20.8809 47.64 18.4009 47.64L15.7209 47.64L15.7209 41.84L17.3609 41.84C18.1076 41.84 18.6409 41.6933 18.9609 41.4C19.2809 41.1067 19.4409 40.6267 19.4409 39.96L19.4409 14.68L26.2809 14.68L26.2809 39.88Z" fill="url(#LinearGradient)" fill-rule="nonzero" opacity="1" stroke="none"/>
<path d="M48.6788 32.04L38.1988 32.04L36.5188 37L29.3588 37L39.5188 8.92L47.4388 8.92L57.5988 37L50.3588 37L48.6788 32.04ZM46.9188 26.76L43.4388 16.48L39.9988 26.76L46.9188 26.76ZM79.3309 17.8C78.8243 16.8667 78.0909 16.16 77.1309 15.68C76.1976 15.1733 75.0909 14.92 73.8109 14.92C71.5976 14.92 69.8243 15.6533 68.4909 17.12C67.1576 18.56 66.4909 20.4933 66.4909 22.92C66.4909 25.5067 67.1843 27.5333 68.5709 29C69.9843 30.44 71.9176 31.16 74.3709 31.16C76.0509 31.16 77.4643 30.7333 78.6109 29.88C79.7843 29.0267 80.6376 27.8 81.1709 26.2L72.4909 26.2L72.4909 21.16L87.3709 21.16L87.3709 27.52C86.8643 29.2267 85.9976 30.8133 84.7709 32.28C83.5709 33.7467 82.0376 34.9333 80.1709 35.84C78.3043 36.7467 76.1976 37.2 73.8509 37.2C71.0776 37.2 68.5976 36.6 66.4109 35.4C64.2509 34.1733 62.5576 32.48 61.3309 30.32C60.1309 28.16 59.5309 25.6933 59.5309 22.92C59.5309 20.1467 60.1309 17.68 61.3309 15.52C62.5576 13.3333 64.2509 11.64 66.4109 10.44C68.5709 9.21333 71.0376 8.6 73.8109 8.6C77.1709 8.6 79.9976 9.41333 82.2909 11.04C84.6109 12.6667 86.1443 14.92 86.8909 17.8L79.3309 17.8ZM111.36 8.92L111.36 14.4L103.92 14.4L103.92 37L97.0797 37L97.0797 14.4L89.6397 14.4L89.6397 8.92L111.36 8.92ZM132.273 32.04L121.793 32.04L120.113 37L112.953 37L123.113 8.92L131.033 8.92L141.193 37L133.953 37L132.273 32.04ZM130.513 26.76L127.033 16.48L123.593 26.76L130.513 26.76ZM165.685 17.96C165.685 19.5867 165.311 21.08 164.565 22.44C163.818 23.7733 162.671 24.8533 161.125 25.68C159.578 26.5067 157.658 26.92 155.365 26.92L151.125 26.92L151.125 37L144.285 37L144.285 8.92L155.365 8.92C157.605 8.92 159.498 9.30667 161.045 10.08C162.591 10.8533 163.751 11.92 164.525 13.28C165.298 14.64 165.685 16.2 165.685 17.96ZM154.845 21.48C156.151 21.48 157.125 21.1733 157.765 20.56C158.405 19.9467 158.725 19.08 158.725 17.96C158.725 16.84 158.405 15.9733 157.765 15.36C157.125 14.7467 156.151 14.44 154.845 14.44L151.125 14.44L151.125 21.48L154.845 21.48ZM183.086 25.64C181.779 25.6933 180.819 26 180.206 26.56C179.592 27.0933 179.286 27.8133 179.286 28.72C179.286 29.44 179.419 30.8667 179.686 33C179.712 33.2133 179.792 33.9067 179.926 35.08C180.059 36.2267 180.126 37.2667 180.126 38.2C180.126 40.4933 179.432 42.2667 178.046 43.52C176.659 44.8 174.806 45.44 172.486 45.44L169.606 45.44L169.606 39.84L171.166 39.84C172.019 39.84 172.632 39.64 173.006 39.24C173.379 38.8667 173.566 38.2933 173.566 37.52C173.566 36.9067 173.459 35.5867 173.246 33.56C173.006 30.9733 172.886 29.28 172.886 28.48C172.886 26.9867 173.232 25.7733 173.926 24.84C174.646 23.88 175.726 23.2533 177.166 22.96L177.166 22.88C175.726 22.6133 174.646 22 173.926 21.04C173.232 20.08 172.886 18.8667 172.886 17.4C172.886 16.6 173.006 14.9067 173.246 12.32C173.459 10.24 173.566 8.90667 173.566 8.32C173.566 7.54667 173.379 6.97333 173.006 6.6C172.632 6.22666 172.019 6.04 171.166 6.04L169.606 6.04L169.606 0.439999L172.486 0.439999C174.806 0.439999 176.659 1.08 178.046 2.36C179.432 3.61333 180.126 5.37333 180.126 7.64C180.126 8.57333 180.059 9.62666 179.926 10.8C179.792 11.9467 179.712 12.6267 179.686 12.84C179.419 14.9733 179.286 16.4 179.286 17.12C179.286 18.08 179.592 18.8267 180.206 19.36C180.819 19.8667 181.779 20.1467 183.086 20.2L183.086 25.64Z" fill="#ffffff" fill-rule="nonzero" opacity="1" stroke="none"/>
</g>
</svg>
